# xmcd CD database file
#
# Track frame offsets:
#	150
#	18704
#	33766
#	57104
#	73428
#	88190
#	102247
#	116633
#	136525
#	155486
#	171412
#	191710
#	208552
#	229776
#
# Disc length: 3296 seconds
#
# Revision: 9
# Processed by: cddbd v1.5.2PL0 Copyright (c) Steve Scherf et al.
# Submitted via: CDex 1.70beta2
#
DISCID=c30cde0e
DTITLE=Various Artist - Simply Smooth Jazz 4
DYEAR=2004
DGENRE=Jazz
TTITLE0=Clare Teal - Miss Otis Regrets
TTITLE1=Milestone - If You Don't Me By Now
TTITLE2=Michel Simone - What A Difference A Day Makes
TTITLE3=Kymaera - Chuck E's In Love
TTITLE4=Nyte Vision - Take Five
TTITLE5=Jazz Culture - Talking In Your Sleep
TTITLE6=Kymaera - California Dreamin'
TTITLE7=Michel Simone - Closest Thing To Crazy
TTITLE8=Milestone - Satin Doll
TTITLE9=Nyte Vision - Three Times A Lady
TTITLE10=Kymaera - Lowdown
TTITLE11=Jazz Calture - I'm Beginning To See The Light
TTITLE12=Kymaera - Livin' On The Fault Line
TTITLE13=Milestone - Holding Back The Years
EXTD=YEAR: 2004
EXTT0=
EXTT1=
EXTT2=
EXTT3=
EXTT4=
EXTT5=
EXTT6=
EXTT7=
EXTT8=
EXTT9=
EXTT10=
EXTT11=
EXTT12=
EXTT13=
PLAYORDER=
